# xmcd CD database file
#
# Track frame offsets:
#	150
#	15160
#	33935
#	49915
#	69504
#	86757
#	107341
#	134451
#	152462
#	176807
#	199134
#	221740
#	259247
#
# Disc length: 3718 seconds
#
# Revision: 0
# Processed by: cddbd v1.5.1PL2 Copyright (c) Steve Scherf et al.
# Submitted via: CDex 1.51
#
DISCID=ae0e840d
DTITLE=Zeromancer - Dr. Online
DYEAR=2001
DGENRE=New Age
TTITLE0=Dr. Online
TTITLE1=Eurotrash
TTITLE2=Need You Like A Drug
TTITLE3=Chrome Bitch
TTITLE4=Wannabe
TTITLE5=Neo Geisha
TTITLE6=Cupola
TTITLE7=Send me an angel
TTITLE8=Plasmatic
TTITLE9=Raising Hell
TTITLE10=Philharmonic
TTITLE11=Germany
TTITLE12=Fractured
EXTD=YEAR: 2001
EXTT0=
EXTT1=
EXTT2=
EXTT3=
EXTT4=
EXTT5=
EXTT6=
EXTT7=
EXTT8=
EXTT9=
EXTT10=
EXTT11=
EXTT12=
PLAYORDER=
